
<?xml version="1.0" standalone="no"?>
<!DOCTYPE svg PUBLIC "-//W3C//DTD SVG 1.1//EN" "http://www.w3.org/Graphics/SVG/1.1/DTD/svg11.dtd">
<svg t="1747185406144" class="icon" viewBox="0 0 1024 1024" version="1.1"
     xmlns="http://www.w3.org/2000/svg" p-id="39690"
     xmlns:xlink="http://www.w3.org/1999/xlink" width="200" height="200">

  <!-- 定义渐变 -->
  <defs>
    <linearGradient id="orangeGradient" x1="0%" y1="0%" x2="100%" y2="100%">
      <stop offset="0%" stop-color="#ffe1c0"/>
      <stop offset="100%" stop-color="#FB8C00"/>
    </linearGradient>
  </defs>

  <!-- 使用渐变填充 -->
  <path d="M850 957H179.1c-64.3 0-117-52.6-117-117V169.2c0-64.3 52.6-117 117-117H850c64.3 0 117 52.6 117 117V840c-0.1 64.4-52.7 117-117 117z"
        fill="url(#orangeGradient)" p-id="39691"></path>

  <!-- 白色图标部分保持不变 -->
  <path d="M714.6 619.2c-25.6 0-60-10.5-88.4-26.6-29.4-16.8-47.1-37.1-47.1-53.9v-17.1c0-8.9 0-11.8 2.6-16.1 3.7-6.3 12.4-15.5 26.3-29.2 32.3-27.1 51-66.8 51-108.6 0-38.1-15-73.9-42.3-101-27.4-27.1-63.6-41.8-102.3-41.8-38.6 0-75 14.7-102.3 41.8-27.6 26.6-42.6 62.3-42.6 100.4 0 41.8 18.7 81.5 51 108.6 29.2 28.7 29.2 29.4 29.2 48.9v13.1c0 17.1-17.6 37.1-47.1 54.2-28.4 16.3-63.1 26.9-88.4 26.9-28.4 0-51.3 22.6-51.3 50.8V709c0 13.4 11 24.5 24.7 24.5h2.1v26.3c0 13.4 11 24.5 24.7 24.5h400.3c13.7 0 24.7-11 24.7-24.5v-26.3h1.9c6.6 0 12.9-2.7 17.6-7.4 4.5-4.5 7.1-10.8 7.1-17.1v-39.4c-0.2-27.8-23-50.4-51.4-50.4z m-1.1 134.9H315.1c-1.6 0-2.6-1.3-2.6-2.7v-19.2h404v19.2c0 0.8-0.3 1.3-0.8 1.9-0.6 0.5-1.4 0.8-2.2 0.8z"
        fill="#FFFFFF" p-id="39692"></path>
</svg>