<?xml version="1.0" standalone="no"?><!DOCTYPE svg PUBLIC "-//W3C//DTD SVG 1.1//EN" "http://www.w3.org/Graphics/SVG/1.1/DTD/svg11.dtd"><svg t="1723702950655" class="icon" viewBox="0 0 1024 1024" version="1.1" xmlns="http://www.w3.org/2000/svg" p-id="26786" xmlns:xlink="http://www.w3.org/1999/xlink" width="200" height="200"><path d="M736 448a288 288 0 1 0 0 576 288 288 0 0 0 0-576z m0 512C612.48 960 512 859.52 512 736S612.48 512 736 512 960 612.48 960 736 859.52 960 736 960z m160-256v64H576v-64h320zM462.912 510.464a350.144 350.144 0 0 0-45.632 70.528A416.256 416.256 0 0 0 64 960H0a480 480 0 0 1 332.48-425.024c-84.672-50.176-142.08-141.44-142.08-246.976a288 288 0 0 1 576 0c0 34.112-6.528 66.56-17.536 96.768-5.376-0.192-10.688-0.768-16.064-0.768-18.944 0-37.312 1.92-55.488 4.8a221.056 221.056 0 0 0 25.088-100.8c0-123.52-100.48-224-224.064-224S254.4 164.48 254.4 288c0 118.208 92.288 214.336 208.512 222.464z" p-id="26787"></path></svg>