<?xml version="1.0" standalone="no"?><!DOCTYPE svg PUBLIC "-//W3C//DTD SVG 1.1//EN" "http://www.w3.org/Graphics/SVG/1.1/DTD/svg11.dtd"><svg t="1749793710690" class="icon" viewBox="0 0 1024 1024" version="1.1" xmlns="http://www.w3.org/2000/svg" p-id="72552" xmlns:xlink="http://www.w3.org/1999/xlink" width="200" height="200"><path d="M972.8 307.5584c0.512 1.8432 0.512 154.2144 0 457.1136-2.7648 5.9392-2.7648 28.2624 0 67.072-94.0032 21.1456-146.7392 33.5872-158.208 37.376H972.8c29.2864-35.84 45.3632-57.6 48.128-65.2288L1024 344.9856c-0.1024-24.7808-17.5104-34.9184-51.2-37.4272zM102.4 869.1712c53.504 2.6112 77.824 0.3072 96.256 0-17.2544-5.7344-84.1728-22.7328-99.328-36.0448-7.7312-7.5264-43.9808-59.5456-48.128-68.4544V307.5584c0.0512-2.9184-50.944 12.7488-51.2 37.376l0.8704 458.9568c4.1472 11.52 13.056 21.76 25.4976 29.44 13.9776 7.68 58.5728 35.584 76.032 35.84z" fill="#41A9FF" p-id="72553"></path><path d="M460.8 512V347.2896c-4.9152-12.9536 3.584-44.288-4.096-56.32C403.968 208.1792 298.496 170.6496 225.28 153.6c-34.048 72.96-25.2928 154.88 23.7056 221.696C281.6512 419.9424 352.256 465.5104 460.8 512zM563.2 512V347.2896c4.9152-12.9536-3.584-44.288 4.096-56.32C620.032 208.1792 725.504 170.6496 798.72 153.6c34.048 72.96 25.2928 154.88-23.7056 221.696C742.3488 419.9424 671.744 465.5104 563.2 512z" fill="#88C7FA" p-id="72554"></path><path d="M563.2 530.7904v282.6752c0.1536 31.3856 6.8096 56.832 43.264 56.9344 36.2496-10.752 107.5712-32.6144 176.384-58.7264 17.8688-6.8096 35.3792-15.2064 69.632-32 21.5552-8.5504 40.6016-21.0944 55.808-36.7616 7.68-8.8576 9.1648-18.7904 13.312-29.2352v-503.296c-0.1536-31.3856-25.088-56.6272-61.5424-56.7808-13.9264 2.048-33.9968 5.376-57.9584 11.008 35.7888 78.7456 26.5728 167.3216-24.832 239.36-51.456 72.0384-116.224 118.6816-214.0672 126.8224z m-330.3936 280.8832c68.864 26.112 140.1856 47.9232 176.384 58.7264 36.5056-0.1536 51.456-25.5488 51.6096-56.8832v-264.704c-96.6656-9.2672-168.2432-74.5984-218.6752-146.1248-50.4832-71.4752-59.4944-159.0784-24.4736-237.1072A706.6112 706.6112 0 0 0 154.624 153.6c-36.5056 0.1536-52.1216 25.5488-52.2752 56.8832v503.1936c4.1472 10.496-3.6864 20.3264 4.096 29.1328 15.36 15.8208 34.816 28.416 56.6784 36.864 34.9696 16.7936 52.5312 25.2928 69.632 32z" fill="#41A9FF" p-id="72555"></path></svg>