<?xml version="1.0" standalone="no"?><!DOCTYPE svg PUBLIC "-//W3C//DTD SVG 1.1//EN" "http://www.w3.org/Graphics/SVG/1.1/DTD/svg11.dtd"><svg t="1749802392439" class="icon" viewBox="0 0 1024 1024" version="1.1" xmlns="http://www.w3.org/2000/svg" p-id="111581" xmlns:xlink="http://www.w3.org/1999/xlink" width="200" height="200"><path d="M851.088 551.728c-11.088 0-22.24-3.808-31.296-11.632l-307.808-264.96-307.792 264.96a48 48 0 1 1-62.624-72.752l308-265.104c35.168-32.032 89.712-32.032 125.872 0.896L882.416 467.36a47.984 47.984 0 0 1-31.328 84.368z" fill="#409EFF" p-id="111582"></path><path d="M172.912 871.456a47.984 47.984 0 0 1-31.328-84.368l308-265.12c35.168-32.016 89.696-32.016 125.856 0.88l307.008 264.24a47.984 47.984 0 0 1 5.056 67.68 47.952 47.952 0 0 1-67.68 5.056L511.984 594.88 204.192 859.84a47.808 47.808 0 0 1-31.28 11.616z" fill="#409EFF" p-id="111583"></path></svg>