<?xml version="1.0" standalone="no"?><!DOCTYPE svg PUBLIC "-//W3C//DTD SVG 1.1//EN" "http://www.w3.org/Graphics/SVG/1.1/DTD/svg11.dtd"><svg t="1746782288420" class="icon" viewBox="0 0 1024 1024" version="1.1" xmlns="http://www.w3.org/2000/svg" p-id="31503" xmlns:xlink="http://www.w3.org/1999/xlink" width="200" height="200"><path d="M265.019077 79.556923h12.327385c102.439385 0 185.501538 83.022769 185.501538 185.462154v197.789538H264.979692a185.462154 185.462154 0 0 1-185.501538-185.462153V265.058462c0-102.439385 83.062154-185.501538 185.501538-185.501539z m494.552615 383.251692h-197.828923V265.058462c0-102.439385 83.022769-185.501538 185.462154-185.501539h12.366769c102.4 0 185.462154 83.062154 185.462154 185.501539v12.327384c0 102.439385-83.062154 185.501538-185.501538 185.501539zM265.019077 561.742769h197.789538v197.828923a185.462154 185.462154 0 0 1-185.462153 185.462154H265.058462a185.462154 185.462154 0 0 1-185.501539-185.501538v-12.327385c0-102.439385 83.062154-185.501538 185.501539-185.501538z m494.552615 383.291077h-12.366769a185.462154 185.462154 0 0 1-185.501538-185.501538v-197.789539h197.868307c102.4 0 185.462154 83.022769 185.462154 185.462154v12.366769c0 102.4-83.062154 185.462154-185.501538 185.462154z" fill="#409EFF" p-id="31504"></path></svg>