<?xml version="1.0" standalone="no"?><!DOCTYPE svg PUBLIC "-//W3C//DTD SVG 1.1//EN" "http://www.w3.org/Graphics/SVG/1.1/DTD/svg11.dtd"><svg t="1725625992649" class="icon" viewBox="0 0 1024 1024" version="1.1" xmlns="http://www.w3.org/2000/svg" p-id="36918" xmlns:xlink="http://www.w3.org/1999/xlink" width="200" height="200"><path d="M929.173333 877.013333A52.202667 52.202667 0 0 1 981.333333 929.194667 52.181333 52.181333 0 0 1 929.173333 981.333333H94.826667a52.16 52.16 0 1 1 0-104.32h834.346666zM597.802667 162.88l155.413333 156.224-178.709333 178.624-66.474667 67.349333a3921.429333 3921.429333 0 0 0-59.84 59.434667c-17.706667 18.005333-32.426667 32.853333-44.053333 44.394667a359.978667 359.978667 0 0 1-39.893334 35.797333 103.68 103.68 0 0 1-22.4 13.248c-11.136 5.290667-22.506667 10.026667-34.112 14.144-14.933333 5.504-30.613333 10.965333-46.933333 16.192-16.426667 5.269333-31.914667 9.856-46.570667 13.717333-14.677333 3.882667-25.642667 6.4-32.853333 7.466667-14.912 1.706667-24.874667-0.533333-29.930667-6.634667-4.906667-6.101333-6.336-16.32-4.096-30.741333 1.92-11.370667 4.544-22.613333 7.850667-33.685333 4.16-14.656 8.618667-29.909333 13.312-45.696 4.693333-15.786667 9.28-30.314667 13.738667-43.584 4.394667-13.312 8.042667-22.464 10.794666-27.456 3.349333-7.744 7.04-14.848 11.2-21.184 4.16-6.4 10.154667-13.482667 17.898667-21.162667l23.253333-23.701333c11.648-11.882667 23.36-23.722667 35.114667-35.498667L597.802667 162.858667z m157.461333-120.149333c8.042667 0.234667 15.850667 1.514667 23.296 3.690666 7.466667 2.24 13.973333 4.693333 19.477333 7.509334 11.669333 6.101333 24.533333 16.789333 38.72 31.978666 14.08 15.253333 25.066667 31.210667 32.810667 47.808 4.906667 12.16 7.466667 25.130667 7.445333 38.250667 0 7.146667-1.344 14.378667-4.117333 21.589333a66.986667 66.986667 0 0 1-13.312 20.757334c-6.677333 6.634667-12.608 12.437333-17.898667 17.429333-5.269333 4.992-9.792 9.386667-13.717333 13.312-4.010667 4.053333-8.149333 7.893333-12.437333 11.626667l-155.413334-155.306667 23.68-21.973333c7.424-7.04 15.04-13.824 22.890667-20.373334a73.130667 73.130667 0 0 1 48.576-16.298666z" fill="#333333" p-id="36919"></path></svg>