<?xml version="1.0" standalone="no"?><!DOCTYPE svg PUBLIC "-//W3C//DTD SVG 1.1//EN" "http://www.w3.org/Graphics/SVG/1.1/DTD/svg11.dtd"><svg t="1745235094519" class="icon" viewBox="0 0 1024 1024" version="1.1" xmlns="http://www.w3.org/2000/svg" p-id="1599" xmlns:xlink="http://www.w3.org/1999/xlink" width="200" height="200"><path d="M516.892444 342.072889h41.187556c110.364444 0 187.733333-0.967111 298.666667-0.967111 77.824 0 106.666667 38.684444 106.666666 80.384 0.512 39.253333-25.315556 75.776-90.225777 77.312-34.474667 0.967111-68.096 0.512-110.307556-1.024-20.081778-0.512-28.387556 5.688889-25.770667 25.827555 3.584 31.402667-1.536 59.790222-27.306666 81.351111-11.320889 9.841778-5.688889 23.722667-4.551111 36.124445 3.072 34.531556-4.664889 65.991111-32.540445 88.746667-14.392889 12.344889-13.880889 26.282667-12.401778 41.756444 3.072 32.995556-8.305778 68.608-38.229333 86.584889-29.411556 18.033778-66.958222 14.449778-99.953778 13.425778-64.512-2.104889-129.934222 1.024-194.446222-7.68-66.503111-9.329778-129.877333-32.995556-192.796444-57.230223-48.981333-19.114667-76.231111-37.546667-74.296889-93.809777 2.616889-92.273778 1.536-185.059556 0.512-277.276445-0.512-26.794667 12.913778-39.253333 35.612444-45.909333a628.053333 628.053333 0 0 0 239.274667-129.877333c32.995556-28.444444 67.527111-54.101333 98.531555-85.617778 30.378667-30.890667 86.072889-25.827556 111.388445-2.104889 30.890667 28.899556 35.100444 74.695111 9.272889 112.412444-11.377778 17.408-22.755556 34.417778-38.286223 57.571556z m138.24 47.445333h-231.537777c-11.946667 0-27.306667 3.072-26.794667-17.521778 0.512-13.880889-1.024-24.177778 18.602667-30.890666 38.172444-12.401778 65.479111-41.813333 90.794666-72.704 15.473778-19.114667 23.210667-34.531556 4.551111-55.182222-21.048889-23.210667-36.522667-3.640889-49.948444 7.68-93.297778 80.896-184.092444 165.546667-306.801778 203.605333-11.320889 3.584-37.546667 4.551111-36.124444 37.546667 4.608 86.129778 2.616889 172.259556 0.568889 258.332444-0.568889 19.626667 10.808889 30.378667 21.617777 34.531556 62.464 24.177778 126.862222 51.598222 193.991112 59.733333 51.541333 6.257778 103.537778 7.224889 155.648 7.224889 35.612444 0 107.804444 15.530667 120.092444-31.971556 10.808889-40.732444-28.899556-42.780444-55.694222-44.828444-17.009778-0.967111-35.100444 5.688889-34.474667-25.258667 0.455111-28.444444 16.952889-22.755556 32.426667-22.755555 18.033778 0 36.124444-1.479111 54.158222 0.568888 28.899556 3.072 42.268444-6.257778 41.813333-37.148444-1.024-50.972444-57.230222-38.115556-93.297777-38.115556-16.042667 0-19.114667-10.808889-19.626667-25.258666-0.512-24.234667 11.946667-23.722667 28.444444-23.210667 28.330667 0.512 56.661333 1.479111 84.536889 0.512a40.504889 40.504889 0 0 0 41.301334-36.124444c0.568889-12.401778 2.616889-36.579556-20.081778-38.115556-32.028444-2.048-62.919111-0.967111-83.512889-2.048-15.473778-1.024-32.995556 4.551111-33.507556-23.722667 0-26.794667 15.530667-24.177778 32.540445-24.177777 97.450667 0 195.356444-1.024 292.864 0.455111 24.234667 0.568889 39.708444-5.688889 39.708444-31.402667 0-23.153778-17.521778-30.378667-38.684444-30.378667-73.955556-0.910222-148.821333 1.137778-223.573334 0.568889z" p-id="1600"></path><path d="M57.457778 718.506667c0-1.934222 0-3.925333 0.113778-5.916445 2.616889-92.273778 1.536-186.311111 0.568888-277.219555-0.568889-25.884444 11.036444-40.903111 37.660445-48.753778a624.810667 624.810667 0 0 0 238.193778-129.308445c10.24-8.817778 20.707556-17.408 30.890666-25.827555 22.755556-18.659556 46.193778-38.001778 67.527111-59.562667 31.288889-31.914667 88.746667-27.249778 115.598223-2.104889 32.085333 29.866667 36.067556 77.767111 9.671111 116.280889-10.467556 16.327111-20.992 32.028444-34.986667 53.020445h35.612445c55.068444 0 102.798222-0.341333 148.878222-0.568889 46.307556-0.227556 94.094222-0.455111 149.731555-0.455111 36.977778 0 65.422222 8.533333 84.48 25.315555 16.497778 14.506667 25.201778 34.588444 25.201778 58.083556 0.284444 21.788444-7.111111 40.789333-21.504 54.897778-16.384 16.099556-40.504889 24.689778-71.68 25.429333-32.199111 0.967111-64.227556 0.682667-110.535111-1.024-10.183111-0.284444-16.497778 1.308444-19.797333 4.892444-2.958222 3.299556-3.868444 8.988444-2.844445 17.408 4.266667 37.546667-4.721778 64.284444-28.444444 84.081778-7.566222 6.599111-6.257778 15.36-4.664889 25.315556 0.398222 2.673778 0.853333 5.518222 1.080889 8.192 3.470222 39.480889-7.793778 70.200889-33.564445 91.192889-13.084444 11.093333-12.970667 23.210667-11.377777 39.139555 3.640889 38.286222-11.548444 72.590222-39.594667 89.486222-27.192889 16.668444-61.383111 15.36-91.591111 14.222223l-10.069334-0.455112c-19.512889-0.568889-39.537778-0.796444-58.823111-0.853333-44.600889-0.341333-90.794667-0.739556-135.907555-6.826667-64.455111-8.988444-125.781333-31.288889-193.479111-57.400888-24.917333-9.671111-44.202667-19.114667-57.400889-33.792-12.8-13.994667-18.887111-32.199111-18.887111-56.888889z m7.736889-134.997334c0 43.064889-0.398222 86.357333-1.592889 129.308445-1.877333 52.565333 21.788444 71.281778 72.248889 90.851555 67.356444 25.941333 128.341333 48.128 192.284444 57.002667 44.657778 6.144 90.680889 6.428444 135.054222 6.826667 19.342222 0.113778 39.310222 0.284444 58.936889 0.910222 3.299556 0.113778 6.656 0.170667 10.183111 0.398222 30.776889 1.137778 62.577778 2.389333 88.177778-13.312 20.423111-12.288 40.789333-40.789333 36.693333-83.797333a73.386667 73.386667 0 0 1 0.227556-22.926222 38.286222 38.286222 0 0 1 13.198222-21.390223c24.576-19.968 34.872889-48.184889 31.516445-86.072889-0.227556-2.503111-0.625778-5.12-1.024-7.793777-1.592889-10.296889-3.527111-22.016 6.712889-30.833778 21.959111-18.488889 30.378667-43.463111 26.282666-78.791111-1.308444-10.410667 0.113778-17.408 4.380445-22.186667 4.608-5.12 12.231111-7.224889 24.519111-6.883555 46.193778 1.706667 78.108444 1.991111 110.193778 0.967111 29.582222-0.682667 52.394667-8.704 67.697777-23.665778 13.084444-12.913778 19.911111-30.435556 19.683556-50.631111 0-21.788444-7.964444-40.391111-23.153778-53.589334-18.033778-15.815111-45.112889-23.779556-80.611555-23.779555-55.523556 0-103.310222 0.284444-149.617778 0.455111-46.08 0.341333-93.809778 0.568889-148.878222 0.568889h-46.933334l3.242667-4.835556c15.473778-23.324444 26.680889-40.106667 38.001778-57.514666 12.288-17.92 17.806222-37.774222 16.156444-57.628445a77.824 77.824 0 0 0-24.974222-50.972444c-12.003556-11.320889-31.402667-18.318222-51.768889-18.716445-22.357333-0.398222-41.927111 6.940444-55.409778 20.593778-21.504 21.902222-45.112889 41.301333-67.925333 60.131556-10.126222 8.305778-20.593778 17.009778-30.776889 25.713777a629.361778 629.361778 0 0 1-240.412444 130.503112c-23.836444 6.997333-33.792 19.911111-33.393778 42.894222 0.568889 48.753778 1.137778 98.417778 1.137778 148.195555z m49.607111-124.131555c0-28.387556 20.593778-33.28 32.995555-36.408889 1.877333-0.455111 3.811556-0.853333 5.176889-1.365333 113.208889-35.214222 200.704-111.502222 285.297778-185.230223 6.826667-5.859556 13.653333-11.889778 20.48-17.806222 1.536-1.251556 3.072-2.673778 4.721778-4.152889 12.117333-10.922667 28.842667-25.941333 49.436444-3.299555 21.048889 23.381333 9.898667 41.301333-4.551111 59.107555-23.438222 28.785778-51.939556 60.586667-92.16 73.671111-15.928889 5.404444-16.099556 12.686222-16.384 24.689778l-0.113778 3.527111c-0.113778 5.404444 0.910222 9.159111 3.072 11.377778 3.527111 3.527111 10.126222 3.299556 16.440889 3.128889l4.209778-0.113778h231.765333c34.019556 0.170667 68.608-0.113778 102.001778-0.398222a5443.697778 5443.697778 0 0 1 121.287111-0.227556c34.417778 0 41.642667 18.204444 41.642667 33.393778 0 11.320889-2.844444 19.626667-8.647111 25.201778-6.826667 6.712889-17.351111 9.671111-34.133334 9.216-69.632-1.137778-140.629333-0.910222-209.237333-0.682667-27.420444 0.113778-55.751111 0.170667-83.626667 0.170667h-4.152888c-8.704-0.056889-16.213333-0.170667-20.650667 4.096-3.185778 3.242667-4.778667 8.817778-4.778667 17.237333 0.398222 20.707556 9.784889 20.593778 22.755556 20.593778 2.673778 0 5.347556 0 7.964444 0.170667 8.305778 0.398222 18.204444 0.568889 29.696 0.568889 16.270222 0.170667 34.872889 0.341333 53.76 1.536 24.746667 1.706667 23.552 27.420444 23.04 39.708444l-0.113778 1.592889a43.349333 43.349333 0 0 1-44.202666 39.025778c-22.300444 0.796444-45.283556 0.284444-67.584-0.227556-5.688889-0.113778-11.377778-0.170667-17.066667-0.398222h-0.341333c-8.988444-0.284444-16.782222-0.512-20.821334 3.527111-2.958222 2.844444-4.266667 8.362667-4.152888 16.611556 0.568889 16.497778 4.892444 22.300444 16.554666 22.300444 5.802667 0 12.003556-0.341333 18.716445-0.739556 23.779556-1.308444 50.801778-2.673778 65.991111 11.377778 7.509333 7.054222 11.377778 17.237333 11.719111 30.435556 0.170667 15.701333-3.128889 26.510222-10.24 32.995555-7.281778 6.712889-18.375111 8.874667-34.872889 7.224889a275.569778 275.569778 0 0 0-37.546667-0.796444c-5.233778 0.056889-10.808889 0.284444-16.270222 0.284444-2.275556 0-4.551111-0.113778-6.826667-0.227555-7.168-0.398222-13.767111-0.682667-17.635555 2.901333-3.242667 3.015111-4.835556 8.533333-4.892445 17.066667-0.227556 9.102222 1.251556 15.132444 4.551112 18.375111 3.925333 3.868444 10.524444 3.754667 18.204444 3.697778 2.901333 0 5.916444-0.113778 9.045333 0.056888l1.877334 0.113778c19.114667 1.536 42.894222 3.299556 53.418666 17.976889 5.404444 7.623111 6.485333 17.92 3.072 30.549333-10.808889 41.187556-62.805333 37.774222-100.920889 35.157334-8.078222-0.455111-15.758222-0.967111-22.186666-0.967111-49.664 0-103.082667-0.910222-156.103111-7.224889-60.586667-7.509333-119.011556-30.264889-175.388445-52.508445l-19.171555-7.452444a36.750222 36.750222 0 0 1-23.608889-36.010667v-1.422222c1.991111-84.593778 4.096-171.975111-0.568889-257.991111l0.056889-3.015111z m403.797333-222.663111c0-6.940444-3.072-13.710222-10.012444-21.504-16.611556-18.204444-28.387556-7.623111-40.96 3.697777l-4.949334 4.266667-20.366222 17.806222C357.205333 315.221333 269.198222 391.964444 154.737778 427.406222c-1.592889 0.512-3.584 0.967111-5.575111 1.479111-12.515556 3.015111-29.582222 7.224889-28.444445 33.109334 4.608 86.186667 2.503111 173.795556 0.568889 258.503111a31.288889 31.288889 0 0 0 19.626667 31.687111l19.228444 7.509333c56.092444 22.016 114.176 44.828444 174.023111 52.110222 52.679111 6.257778 105.813333 7.168 155.363556 7.168 6.485333 0 14.336 0.568889 22.641778 1.137778 18.773333 1.308444 40.163556 2.673778 58.254222-1.024 20.309333-4.096 32.199111-13.767111 36.408889-29.809778 2.901333-10.979556 2.218667-19.285333-2.161778-25.486222-8.817778-12.401778-31.118222-14.108444-49.038222-15.473778l-1.820445-0.113777c-2.787556-0.227556-5.688889-0.113778-8.476444-0.113778-8.305778 0.113778-16.782222 0.284444-22.471111-5.404445-4.551111-4.494222-6.542222-11.889778-6.428445-22.755555 0.227556-10.24 2.389333-17.237333 6.883556-21.333333 5.802667-5.404444 14.108444-5.006222 22.129778-4.551112 2.218667 0.170667 4.380444 0.227556 6.599111 0.227556 5.404444 0 10.865778-0.056889 16.213333-0.284444 12.515556-0.284444 25.486222-0.682667 38.286222 0.796444 14.677333 1.592889 24.291556-0.170667 30.151111-5.575111 5.859556-5.290667 8.533333-14.620444 8.248889-28.501333-0.227556-11.719111-3.413333-20.195556-9.784889-26.112-13.312-12.401778-38.912-10.979556-61.610666-9.784889-6.712889 0.398222-13.084444 0.682667-19.000889 0.682666-19.000889 0-22.129778-14.222222-22.584889-28.216889-0.227556-10.183111 1.706667-16.782222 5.859556-21.048888 5.916444-5.916444 14.904889-5.632 25.315555-5.233778h0.284445c5.688889 0.113778 11.377778 0.170667 17.066666 0.398222 22.243556 0.512 45.169778 1.024 67.356445 0.227556a37.319111 37.319111 0 0 0 38.4-33.223112l0.113777-1.592888c0.682667-16.327111 0-32.312889-17.408-33.393778a926.72 926.72 0 0 0-53.475555-1.536 849.692444 849.692444 0 0 1-30.037333-0.568889 64.170667 64.170667 0 0 0-7.623112-0.113778c-12.572444 0.113778-28.273778 0.113778-28.785777-26.510222 0-10.069333 2.104889-17.180444 6.485333-21.504 6.144-5.973333 15.246222-5.859556 24.803556-5.802667h4.096c27.875556 0 56.206222-0.056889 83.626666-0.170666 68.664889-0.227556 139.719111-0.398222 209.351111 0.682666 14.791111 0.284444 24.348444-2.104889 29.866667-7.509333 4.551111-4.494222 6.826667-11.264 6.826667-20.878222 0-18.204444-12.060444-27.420444-35.726223-27.420445-40.220444-0.568889-81.408-0.170667-121.173333 0.227556-33.450667 0.284444-68.039111 0.568889-102.058667 0.398222h-231.537777c-1.251556 0-2.673778 0-4.039111 0.113778-7.338667 0.170667-15.530667 0.398222-20.821334-4.835556-3.470222-3.470222-5.12-8.590222-4.892444-15.815111l0.113778-3.470222c0.284444-12.629333 0.568889-23.381333 20.48-30.151111 38.684444-12.515556 66.389333-43.633778 89.429333-71.736889 9.102222-11.605333 14.677333-20.935111 14.677333-30.151111z" p-id="1601"></path></svg>