<?xml version="1.0" standalone="no"?><!DOCTYPE svg PUBLIC "-//W3C//DTD SVG 1.1//EN" "http://www.w3.org/Graphics/SVG/1.1/DTD/svg11.dtd"><svg t="1747139182938" class="icon" viewBox="0 0 1024 1024" version="1.1" xmlns="http://www.w3.org/2000/svg" p-id="27881" xmlns:xlink="http://www.w3.org/1999/xlink" width="200" height="200"><path d="M104.490667 436.352c-42.24-42.24-42.24-108.608 0-150.848l75.413333-75.434667L481.6 511.786667l-150.826667 150.826666L104.469333 436.373333zM587.2 104.490667c42.24-42.24 108.608-42.24 150.848 0l75.434667 75.413333L511.786667 481.6l-150.848-150.826667L587.2 104.469333z m331.861333 482.709333c42.24 42.24 42.24 108.608 0 150.848l-75.413333 75.434667L541.952 511.786667l150.826667-150.848 226.282666 226.261333zM436.352 919.061333c-42.24 42.24-108.608 42.24-150.848 0l-75.434667-75.413333L511.786667 541.952l150.826666 150.826667-226.261333 226.282666z" fill="#2a91fe" p-id="27882"></path><path d="M90.901333 302.08l300.202667 300.202667-60.352 60.352-113.130667-113.152-113.130666-113.130667c-36.202667-36.202667-40.746667-92.010667-13.589334-134.250667zM805.930667 474.069333l-113.130667-113.130666-60.352 60.330666 300.202667 300.181334c27.157333-42.24 22.613333-98.048-13.589334-134.250667l-113.130666-113.130667zM549.482667 805.930667l113.152-113.130667-60.352-60.352-300.181334 300.202667c42.24 27.157333 98.048 22.613333 134.250667-13.589334l113.130667-113.130666zM721.450667 90.901333L421.269333 391.104l-60.330666-60.352 113.130666-113.130667 113.130667-113.130666c36.202667-36.202667 92.010667-40.746667 134.250667-13.589334z" fill="#2a91fe" p-id="27883"></path></svg>