<?xml version="1.0" standalone="no"?><!DOCTYPE svg PUBLIC "-//W3C//DTD SVG 1.1//EN" "http://www.w3.org/Graphics/SVG/1.1/DTD/svg11.dtd"><svg t="1747271743496" class="icon" viewBox="0 0 1024 1024" version="1.1" xmlns="http://www.w3.org/2000/svg" p-id="61990" xmlns:xlink="http://www.w3.org/1999/xlink" width="200" height="200"><path d="M370.260775 450.211293c75.30528 27.717119 165.449878-26.864284 200.245523-121.443622l81.01927-220.116565C686.577063 14.071768 641.035705-26.608434 550.97639 18.250657l-52.619884 26.2673c-90.229882 44.773807-186.770739 143.020333-214.487858 218.410896-27.717119 75.219996 11.086848 159.565321 86.47741 187.28244z m80.50757 203.486294c27.717119-75.30528-26.864284-165.449878-121.358339-200.245523l-220.201849-81.019271c-94.579338-34.966211-135.25954 10.489863-90.400449 100.634463l26.096734 52.705167c44.773807 90.144599 143.105617 186.770739 218.496179 214.487858A146.346387 146.346387 0 0 0 450.853628 653.697587z m554.854077-103.363532l-26.096734-52.705168c-44.773807-90.144599-143.105617-186.770739-218.325613-214.487858A146.346387 146.346387 0 0 0 573.661785 369.703723c-27.717119 75.30528 26.864284 165.449878 121.443622 200.245523l220.201849 81.019271c94.494054 34.966211 135.174256-10.489863 90.229882-100.634462z m-351.367784 22.855962c-75.30528-27.717119-165.449878 26.864284-200.160239 121.443622l-81.104554 220.116565c-34.966211 94.579338 10.489863 135.25954 100.634462 90.40045l52.705168-26.096734c90.144599-44.773807 186.770739-143.105617 214.487858-218.49618a146.346387 146.346387 0 0 0-86.562695-187.367723z" fill="#515151" p-id="61991"></path></svg>