<?xml version="1.0" standalone="no"?><!DOCTYPE svg PUBLIC "-//W3C//DTD SVG 1.1//EN" "http://www.w3.org/Graphics/SVG/1.1/DTD/svg11.dtd"><svg t="1746782551291" class="icon" viewBox="0 0 1024 1024" version="1.1" xmlns="http://www.w3.org/2000/svg" p-id="33625" xmlns:xlink="http://www.w3.org/1999/xlink" width="200" height="200"><path d="M505.856 511.5904m-445.4912 0a445.4912 445.4912 0 1 0 890.9824 0 445.4912 445.4912 0 1 0-890.9824 0Z" fill="#FFEFEB" p-id="33626"></path><path d="M496.3328 222.3104L345.4976 357.888c-3.1232 2.816-7.168 4.352-11.3152 4.352H227.2256c-28.8768 0-52.2752 23.3984-52.2752 52.2752v200.3456c0 28.8768 23.3984 52.2752 52.2752 52.2752h103.1168c4.0448 0 7.9872 1.4336 11.0592 4.096l155.4432 133.888c21.4528 18.4832 54.6816 3.2256 54.6816-25.088V246.9376c0-28.6208-33.8944-43.7248-55.1936-24.6272zM627.968 669.184a26.9312 26.9312 0 0 1-21.6576-10.8544 26.96192 26.96192 0 0 1 5.5808-37.6832c34.5088-25.6 54.272-64.8704 54.272-107.776 0-42.0864-19.2-80.896-52.6336-106.5472-11.776-9.0624-14.0288-25.9584-5.0176-37.7344 9.0624-11.776 25.9584-14.0288 37.7344-5.0176 46.848 35.8912 73.728 90.3168 73.728 149.2992 0 59.2384-28.416 115.6608-76.032 150.9888-4.7616 3.6352-10.3936 5.3248-15.9744 5.3248z" fill="#FF5A3E" p-id="33627"></path><path d="M715.4176 755.1488c-7.6288 0-15.1552-3.2256-20.48-9.472-9.6256-11.3152-8.2944-28.3136 3.0208-37.9392a255.65696 255.65696 0 0 0 90.0096-194.816c0-75.1104-32.8192-146.1248-90.0608-194.9184a26.88 26.88 0 0 1-3.0208-37.9392 26.88 26.88 0 0 1 37.9392-3.0208 309.41696 309.41696 0 0 1 109.0048 235.8784c0 90.88-39.68 176.7936-108.9024 235.8272-5.12 4.3008-11.3152 6.4-17.5104 6.4z" fill="#FF5A3E" p-id="33628"></path><path d="M786.7904 336.7424a310.4256 310.4256 0 0 0-53.9648-59.7504c-11.3152-9.6256-28.3136-8.2944-37.9392 3.0208s-8.2944 28.3136 3.0208 37.9392a255.87712 255.87712 0 0 1 77.4656 115.6608c1.3312-5.3248 2.6112-10.5984 3.6864-16.0256a385.3824 385.3824 0 0 0 7.7312-80.8448zM646.2976 363.6224a26.87488 26.87488 0 0 0-37.7344 5.0176 26.87488 26.87488 0 0 0 5.0176 37.7344c33.4336 25.6512 52.6336 64.4608 52.6336 106.5472 0 42.9056-19.7632 82.176-54.272 107.776a26.96192 26.96192 0 0 0-0.6656 42.752c38.2976-24.7808 72.1408-56.32 99.6864-93.3376a186.8288 186.8288 0 0 0 9.0624-57.1392c0-59.0336-26.88-113.4592-73.728-149.3504zM496.3328 222.3104L345.4976 357.888c-3.1232 2.816-7.168 4.352-11.3152 4.352H227.2256c-28.8768 0-52.2752 23.3984-52.2752 52.2752v200.3456c0 28.8768 23.3984 52.2752 52.2752 52.2752h103.1168c4.0448 0 7.9872 1.4336 11.0592 4.096l62.5664 53.9136c51.6096-0.1536 101.5808-10.752 147.5584-30.1056V246.9376c0-28.6208-33.8944-43.7248-55.1936-24.6272z" fill="#FF6B50" p-id="33629"></path><path d="M694.8352 280.064c-9.216 10.8032-8.2944 26.7264 1.6896 36.5568a452.5056 452.5056 0 0 0 16.0256-45.824c-6.656 0.6656-13.056 3.7376-17.7152 9.2672zM646.2976 363.6224a26.87488 26.87488 0 0 0-37.7344 5.0176 26.87488 26.87488 0 0 0 5.0176 37.7344 136.3456 136.3456 0 0 1 19.2 17.9712c11.4176-14.1824 22.0672-29.1328 31.6928-44.8-5.6832-5.632-11.7248-11.008-18.176-15.9232zM496.3328 222.3104L345.4976 357.888c-3.1232 2.816-7.168 4.352-11.3152 4.352H227.2256c-28.8768 0-52.2752 23.3984-52.2752 52.2752v158.72c8.8064 2.3552 17.7664 4.5056 26.8288 6.3488 127.2832 25.9584 252.928-5.888 349.7472-77.4656V246.9376c0-28.6208-33.8944-43.7248-55.1936-24.6272z" fill="#FF7F66" p-id="33630"></path><path d="M496.3328 222.3104L345.4976 357.888c-3.1232 2.816-7.168 4.352-11.3152 4.352H227.2256c-28.8768 0-52.2752 23.3984-52.2752 52.2752v31.3344c146.9952 13.312 286.976-48.9472 376.576-158.0544v-40.8576c0-28.6208-33.8944-43.7248-55.1936-24.6272z" fill="#FF9A7B" p-id="33631"></path></svg>