<?xml version="1.0" standalone="no"?><!DOCTYPE svg PUBLIC "-//W3C//DTD SVG 1.1//EN" "http://www.w3.org/Graphics/SVG/1.1/DTD/svg11.dtd"><svg t="1731034389373" class="icon" viewBox="0 0 1024 1024" version="1.1" xmlns="http://www.w3.org/2000/svg" p-id="5479" xmlns:xlink="http://www.w3.org/1999/xlink" width="200" height="200"><path d="M460.1 673.2c-7.9-2.6-21-4.7-35.9-7.1-10.9-1.8-31-9.1-31-9.1l-123-53.1c-18.5-8-40.3 1.3-48.7 20.9-8.4 19.5-0.3 41.7 18.3 49.8l125.7 54.1c5.1 2.5 1.6 8.8-2.7 7L231.2 679c-19.3-8.3-26.9-33.4-17.2-55.9 2.6-5.9 6-11.1 10.1-15.2l-63.6-126c-8.3-16.5-28.7-23-45.6-14.5-16.9 8.5-23.8 28.8-15.4 45.2L200 711.7c4.4 8.8 8.5 16.9 19.9 22.3l169.5 66c16.8 13.9 31.4 29.4 40.9 66.6 0.2 0.3 143 0 144.6 0 0 0-61.8-179.4-114.8-193.4z m0 0" fill="" p-id="5480"></path><path d="M909 467.1c-16.9-8.5-37.3-2-45.6 14.5l-63.6 126c4.1 4.2 7.6 9.3 10.1 15.2 9.7 22.6 2 47.7-17.2 55.9l-131.6 56.7c-4.3 1.8-7.7-4.5-2.7-7l125.7-54.2c18.5-8 26.7-30.2 18.2-49.8-8.4-19.4-30.2-28.8-48.7-20.9l-122.9 53.1s-20.1 7.4-31 9.2c-15 2.4-28 4.5-35.9 7.1-53 14-116.2 193.6-116.2 193.6-1.6-1.6 147.6 0.5 146 0 9.8-40.6 24.1-52.9 40.9-66.8l169.5-66c11.3-5.4 15.4-13.5 19.9-22.3l100.6-199.3c8.2-16.3 1.4-36.5-15.5-45zM512 618.6c309.6-152.8 328.5-366.4 200-440.9-71.5-41.4-150-17.5-200 50.3-49.9-67.9-128.5-91.7-200-50.3-128.6 74.5-109.7 288.1 200 440.9z m0 0" fill="" p-id="5481"></path></svg>