<?xml version="1.0" standalone="no"?><!DOCTYPE svg PUBLIC "-//W3C//DTD SVG 1.1//EN" "http://www.w3.org/Graphics/SVG/1.1/DTD/svg11.dtd"><svg t="1742887965546" class="icon" viewBox="0 0 1024 1024" version="1.1" xmlns="http://www.w3.org/2000/svg" p-id="3505" xmlns:xlink="http://www.w3.org/1999/xlink" width="200" height="200"><path d="M245.07733333 279.09688889c0 83.28533333 44.37333333 160.19911111 116.50844445 201.84177778 72.13511111 41.64266667 160.88177778 41.64266667 233.01688889 0C666.73777778 439.296 711.11111111 362.38222222 711.11111111 279.09688889c0-128.68266667-104.33422222-233.01688889-233.01688889-233.01688889-128.68266667 0-233.01688889 104.33422222-233.01688889 233.01688889z m0 0M45.39733333 978.14755555h466.03377778c-133.12-66.56-133.12-399.47377778-133.12-399.47377777-332.91377778 0-332.91377778 274.31822222-332.91377778 399.47377777z m699.05066667-466.03377777c-128.68266667 0-233.01688889 104.33422222-233.01688889 233.01688889 0 128.68266667 104.33422222 233.01688889 233.01688889 233.01688888 128.68266667 0 233.01688889-104.33422222 233.01688889-233.01688888 0-128.68266667-104.33422222-233.01688889-233.01688889-233.01688889z m23.32444445 303.55911111l-46.6488889 47.21777778-47.21777777-47.21777778-95.91466667-93.86666667 46.64888889-47.21777777 94.54933333 93.86666666 141.19822222-141.19822222 46.6488889 47.21777778-139.264 141.19822222z m0 0" p-id="3506"></path></svg>