<?xml version="1.0" standalone="no"?><!DOCTYPE svg PUBLIC "-//W3C//DTD SVG 1.1//EN" "http://www.w3.org/Graphics/SVG/1.1/DTD/svg11.dtd"><svg t="1749804101700" class="icon" viewBox="0 0 1792 1024" version="1.1" xmlns="http://www.w3.org/2000/svg" p-id="128031" xmlns:xlink="http://www.w3.org/1999/xlink" width="350" height="200"><path d="M1721.728 430.805333l-105.130667 100.565334a702.250667 702.250667 0 0 1 135.936 180.309333c12.458667 23.893333-1.578667 51.285333-31.317333 61.269333-29.866667 10.026667-63.914667-1.28-76.373333-25.173333-123.178667-236.672-410.026667-383.658667-748.544-383.658667-341.248 0-628.266667 147.370667-748.928 384.469334-12.16 23.936-46.165333 35.498667-76.117334 25.728-29.909333-9.813333-44.16-37.12-32-61.013334 35.541333-69.717333 84.650667-132.906667 144.213334-188.458666l-98.346667-94.037334c-20.736-19.754667-17.493333-49.28 7.210667-65.962666 10.922667-7.381333 24.234667-10.965333 37.504-10.965334 16.64 0 33.194667 5.717333 44.757333 16.725334l91.136 87.125333a949.888 949.888 0 0 1 212.394667-112.341333L422.4 222.592c-11.050667-24.32 4.565333-51.157333 34.901333-60.032 6.570667-1.92 13.312-2.816 19.925334-2.816 23.850667 0 46.250667 11.818667 54.869333 30.805333l54.442667 119.978667a1190.101333 1190.101333 0 0 1 251.392-38.485333v-142.08c0-25.856 26.154667-46.805333 58.368-46.805334 32.213333 0 58.368 20.906667 58.368 46.805334v142.08c92.714667 4.096 181.461333 18.176 264.576 41.130666l55.637333-122.496c8.618667-18.986667 30.976-30.805333 54.826667-30.805333 6.656 0 13.397333 0.938667 19.968 2.816 30.293333 8.874667 45.952 35.669333 34.901333 60.032l-57.429333 126.549333a920.490667 920.490667 0 0 1 208.384 114.048l96.853333-92.629333a65.109333 65.109333 0 0 1 44.8-16.725333c13.184 0 26.453333 3.584 37.376 10.965333 24.746667 16.64 27.946667 46.165333 7.253333 65.92l-0.085333-0.042667z" fill="#515151" p-id="128032"></path><path d="M1111.893333 768.426667a201.813333 201.813333 0 0 1-403.626666 0 201.813333 201.813333 0 0 1 403.626666 0z" fill="#515151" p-id="128033"></path></svg>