<?xml version="1.0" standalone="no"?><!DOCTYPE svg PUBLIC "-//W3C//DTD SVG 1.1//EN" "http://www.w3.org/Graphics/SVG/1.1/DTD/svg11.dtd"><svg t="1728729757759" class="icon" viewBox="0 0 1028 1024" version="1.1" xmlns="http://www.w3.org/2000/svg" p-id="9798" xmlns:xlink="http://www.w3.org/1999/xlink" width="64.25" height="64"><path d="M375.466667 119.466667c37.649067 0 68.266667 30.6176 68.266666 68.266666v204.8c0 37.649067-30.6176 68.266667-68.266666 68.266667H170.666667c-37.649067 0-68.266667-30.6176-68.266667-68.266667v-204.8c0-37.649067 30.6176-68.266667 68.266667-68.266666h204.8m0-34.133334H170.666667a102.4 102.4 0 0 0-102.4 102.4v204.8a102.4 102.4 0 0 0 102.4 102.4h204.8a102.4 102.4 0 0 0 102.4-102.4v-204.8a102.4 102.4 0 0 0-102.4-102.4zM821.3504 119.466667c37.649067 0 68.266667 30.6176 68.266667 68.266666v204.8c0 37.649067-30.6176 68.266667-68.266667 68.266667h-204.8c-37.649067 0-68.266667-30.6176-68.266667-68.266667v-204.8c0-37.649067 30.6176-68.266667 68.266667-68.266666h204.8m0-34.133334h-204.8a102.4 102.4 0 0 0-102.4 102.4v204.8a102.4 102.4 0 0 0 102.4 102.4h204.8a102.4 102.4 0 0 0 102.4-102.4v-204.8a102.4 102.4 0 0 0-102.4-102.4zM375.466667 563.2c37.649067 0 68.266667 30.6176 68.266666 68.266667v204.8c0 37.649067-30.6176 68.266667-68.266666 68.266666H170.666667c-37.649067 0-68.266667-30.6176-68.266667-68.266666v-204.8c0-37.649067 30.6176-68.266667 68.266667-68.266667h204.8m0-34.133333H170.666667a102.4 102.4 0 0 0-102.4 102.4v204.8a102.4 102.4 0 0 0 102.4 102.4h204.8a102.4 102.4 0 0 0 102.4-102.4v-204.8a102.4 102.4 0 0 0-102.4-102.4zM821.3504 563.2c37.649067 0 68.266667 30.6176 68.266667 68.266667v204.8c0 37.649067-30.6176 68.266667-68.266667 68.266666h-204.8c-37.649067 0-68.266667-30.6176-68.266667-68.266666v-204.8c0-37.649067 30.6176-68.266667 68.266667-68.266667h204.8m0-34.133333h-204.8a102.4 102.4 0 0 0-102.4 102.4v204.8a102.4 102.4 0 0 0 102.4 102.4h204.8a102.4 102.4 0 0 0 102.4-102.4v-204.8a102.4 102.4 0 0 0-102.4-102.4z"  p-id="9799"></path></svg>