<?xml version="1.0" standalone="no"?><!DOCTYPE svg PUBLIC "-//W3C//DTD SVG 1.1//EN" "http://www.w3.org/Graphics/SVG/1.1/DTD/svg11.dtd"><svg t="1746694362446" class="icon" viewBox="0 0 1029 1024" version="1.1" xmlns="http://www.w3.org/2000/svg" p-id="9917" xmlns:xlink="http://www.w3.org/1999/xlink" width="200.9765625" height="200"><path d="M153.523238 1023.488256a153.523238 153.523238 0 0 1-153.523238-153.523239v-716.441779a153.523238 153.523238 0 0 1 153.523238-153.523238h562.918541a153.523238 153.523238 0 0 1 153.523238 153.523238v460.569716a823.908046 823.908046 0 0 1 153.523239 153.523238s-171.946027 242.566717-386.878561 255.872064H153.523238z m232.331834-327.516242a744.075962 744.075962 0 0 0-72.667666 71.644178 690.854573 690.854573 0 0 0 72.667666 72.155922 381.249375 381.249375 0 0 0 232.843579 106.954523 382.784608 382.784608 0 0 0 233.355322-106.954523 743.564218 743.564218 0 0 0 72.667666-72.155922 805.997001 805.997001 0 0 0-72.667666-72.155922 384.31984 384.31984 0 0 0-233.355322-106.954523 384.31984 384.31984 0 0 0-232.843579 107.466267zM76.761619 153.523238v716.441779A76.761619 76.761619 0 0 0 153.523238 947.238381h245.125438a815.72014 815.72014 0 0 1-184.227886-179.622189s181.157421-255.872064 404.789605-255.872064a372.549725 372.549725 0 0 1 174.504747 51.174413v-409.395303A76.761619 76.761619 0 0 0 716.441779 77.273363H153.523238a76.761619 76.761619 0 0 0-76.761619 76.249875z" p-id="9918"></path><path d="M623.816092 716.441779a51.174413 51.174413 0 1 0 51.174413 51.174413 51.174413 51.174413 0 0 0-51.174413-51.174413m0-51.174413a102.348826 102.348826 0 1 1-102.348826 102.348826 102.348826 102.348826 0 0 1 102.348826-102.348826z"  p-id="9919"></path><path d="M614.092954 255.872064H255.872064a38.38081 38.38081 0 0 1 0-76.761619h358.22089a38.38081 38.38081 0 0 1 0 76.761619z" p-id="9920"></path><path d="M460.569715 448.287856H255.872064a38.38081 38.38081 0 0 1 0-76.761619h204.697651a38.38081 38.38081 0 0 1 0 76.761619z" p-id="9921"></path></svg>