<?xml version="1.0" standalone="no"?><!DOCTYPE svg PUBLIC "-//W3C//DTD SVG 1.1//EN" "http://www.w3.org/Graphics/SVG/1.1/DTD/svg11.dtd"><svg t="1749721850591" class="icon" viewBox="0 0 1024 1024" version="1.1" xmlns="http://www.w3.org/2000/svg" p-id="67900" xmlns:xlink="http://www.w3.org/1999/xlink" width="200" height="200"><path d="M843.1 452.4H92.6c-13.3 0-24.9-9.2-27.9-22.1-3.1-13 3.2-26.3 15.1-32.2 2.8-1.5 72.4-38.5 72.4-128.9s-69.6-127.4-72.6-129c-11.8-6-17.9-19.4-14.8-32.3 3.1-12.9 14.6-22 27.8-22h750.5c4.4 0 8.8 1 12.8 3.1 4.2 2.1 104.2 53.5 104.2 180.2s-99.9 178-104.1 180.2c-4 2-8.4 3-12.9 3z m-675-57.4h667.3c16.7-10.5 67.3-48.8 67.3-125.8 0-76.9-50.4-115.2-67.3-125.8H168.1c22.1 28.8 41.5 70 41.5 125.8s-19.4 97-41.5 125.8z" fill="#101820" p-id="67901"></path><path d="M931.4 600.3H180.9s-88.3 44.1-88.3 154.5 88.3 154.5 88.3 154.5h750.5s-88.3-44.1-88.3-154.5 88.3-154.5 88.3-154.5z" fill="#FFC629" p-id="67902"></path><path d="M931.4 938.1H180.9c-4.4 0-8.8-1-12.8-3.1-4.2-2.1-104.2-53.5-104.2-180.2s99.9-178 104.1-180.2c4-2 8.4-3.1 12.8-3.1h750.5c13.3 0 24.9 9.2 27.9 22.1 3 12.9-3.1 26.2-15 32.2-3.3 1.7-72.6 38.7-72.6 128.9 0 90.4 69.6 127.4 72.6 129 11.8 6 17.9 19.4 14.8 32.3-2.9 13-14.3 22.1-27.6 22.1z m-742.8-57.5h667.3c-22.1-28.8-41.5-70-41.5-125.8s19.4-97 41.5-125.8H188.6c-16.7 10.5-67.3 48.8-67.3 125.8 0 76.9 50.4 115.2 67.3 125.8z" fill="#101820" p-id="67903"></path></svg>