<?xml version="1.0" standalone="no"?><!DOCTYPE svg PUBLIC "-//W3C//DTD SVG 1.1//EN" "http://www.w3.org/Graphics/SVG/1.1/DTD/svg11.dtd"><svg t="1749722026767" class="icon" viewBox="0 0 1049 1024" version="1.1" xmlns="http://www.w3.org/2000/svg" p-id="68064" xmlns:xlink="http://www.w3.org/1999/xlink" width="204.8828125" height="200"><path d="M1007.951466 402.895854c37.921132-58.887765 73.318504-164.821031-9.18908-240.986855a20.643074 20.643074 0 0 0-8.736097-4.723964L541.314459 0 0 137.771486l491.421638 267.64813 497.310415-189.087968c44.651163 68.400404-8.671385 152.461072-23.749242 173.557129l-472.39636 167.474216-452.982811-248.622851a21.419616 21.419616 0 1 0-20.578362 37.532861l469.678463 257.747219 487.344793-172.651162c60.311426 68.076845 6.471183 147.219414-8.088979 166.309403l-473.496461 167.733064-452.982811-248.493428a21.419616 21.419616 0 1 0-20.643074 37.532862l470.066734 257.747219 481.197169-170.256825c62.770475 68.465116 8.283114 148.837209-6.471183 168.250758l-473.367037 167.150657-452.982811-248.622851a21.432558 21.432558 0 0 0-20.578362 37.597573l469.807887 257.423661 502.422649-177.957533 3.623862-4.270981c37.532861-43.227503 84.707786-142.754297 12.942366-225.391304 34.750253-48.145602 67.688574-137.771486 0.452983-213.225481zM495.692619 343.878665l-91.243681-49.633973 409.10819-139.195147 93.443883 32.744186z" fill="#333333" p-id="68065"></path><path d="M967.053589 597.872599L493.751264 765.605662l-452.982811-248.493427a21.419616 21.419616 0 0 0-20.643074 37.532861l469.678463 257.682508 481.58544-170.386249" fill="#BC180D" p-id="68066"></path><path d="M967.830131 597.807887L494.527806 765.54095l-452.982811-248.493427a21.419616 21.419616 0 1 0-20.578362 37.532861l469.93731 257.682508 481.261881-170.321537" fill="#BC180D" p-id="68067"></path></svg>