<?xml version="1.0" standalone="no"?><!DOCTYPE svg PUBLIC "-//W3C//DTD SVG 1.1//EN" "http://www.w3.org/Graphics/SVG/1.1/DTD/svg11.dtd"><svg t="1742888053792" class="icon" viewBox="0 0 1144 1024" version="1.1" xmlns="http://www.w3.org/2000/svg" p-id="4488" xmlns:xlink="http://www.w3.org/1999/xlink" width="223.4375" height="200"><path d="M584.349923 585.767103c-147.776965 0-267.981937 142.763967-267.981937 318.329925v74.732983a43.59199 43.59199 0 0 1-9.807998 28.034993 29.969993 29.969993 0 0 1-47.378989 0 43.59199 43.59199 0 0 1-9.807997-28.034993v-74.705983c0-219.239949 150.255965-397.584907 335.112921-397.584907m-326.257924 80.399981a32.175992 32.175992 0 0 1-5.449998-0.517999c-61.327986-13.213997-109.986974-68.983984-123.472971-141.482967s10.897997-147.558965 61.817985-190.359956c33.483992-28.171993 74.950982-39.178991 115.191973-30.541993 15.856996 4.522999 25.991994 22.966995 23.157995 42.092991s-17.708996 32.285992-33.892992 29.969993a80.617981 80.617981 0 0 0-68.955984 18.335995c-30.596993 25.745994-45.226989 70.836983-37.162991 114.427973s37.243991 77.157982 74.079982 85.194981c15.801996 3.214999 26.862994 20.324995 25.499994 39.34199s-14.765997 33.592992-30.785993 33.538992z" p-id="4489"></path><path d="M32.694052 880.448034a31.712993 31.712993 0 0 1-23.130994-10.189998A36.044992 36.044992 0 0 1 0.00006 845.739042v-49.666989c0-149.846965 113.665973-271.223936 254.19494-271.604936a32.312992 32.312992 0 0 1 29.015994 17.163996 36.834991 36.834991 0 0 1 0 35.418992 32.312992 32.312992 0 0 1-29.015994 17.163996c-104.347976 0.273-188.806956 90.589979-188.806955 201.857952v49.530989a36.044992 36.044992 0 0 1-9.562998 24.519994 31.685993 31.685993 0 0 1-23.130995 10.325998z m1002.967765-138.539968H778.469878q-55.034987 0-55.034988-47.433989t55.034988-47.432989h257.191939q55.034987 0 55.034987 47.432989t-55.034987 47.433989z m48.141989 225.696947H724.71589q-55.034987 0-55.034987-44.735989t55.034987-44.76399h359.087916q55.034987 0 55.034987 44.73699t-55.034987 44.735989z m-418.809902-377.832911a299.93993 299.93993 0 0 1-35.716991-2.152 294.844931 294.844931 0 1 1 327.864923-257.627939 294.926931 294.926931 0 0 1-292.146932 259.752939zM663.959904 64.108225a230.764946 230.764946 0 0 0-27.026993 459.867892 230.736946 230.736946 0 0 0 256.59294-201.612953A231.009946 231.009946 0 0 0 691.912898 65.770225a234.769945 234.769945 0 0 0-27.953994-1.662z" p-id="4490"></path></svg>